<svg id="Capa_1" xmlns="http://www.w3.org/2000/svg" viewBox="0 0 480 480"><path d="M456 208H296c-13.255 0-24 10.745-24 24v224c0 13.255 10.745 24 24 24h160c13.255 0 24-10.745 24-24V232c0-13.255-10.745-24-24-24zm-88 256h-72a8 8 0 0 1-8-8v-56h80v64zm0-80h-80v-64h80v64zm96 72a8 8 0 0 1-8 8h-72v-64h80v56zm0-72h-80v-64h80v64zm0-80H288v-72a8 8 0 0 1 8-8h160a8 8 0 0 1 8 8v72z"/><path d="M440 240H312a8 8 0 0 0-8 8v32a8 8 0 0 0 8 8h128a8 8 0 0 0 8-8v-32a8 8 0 0 0-8-8zm-8 32H320v-16h112v16zm-96 72v-16h-16v16h-16v16h16v16h16v-16h16v-16zm64 0h48v16h-48zm-49.376 77.656l-11.312-11.312L328 421.656l-11.312-11.312-11.312 11.312 11.312 11.312-11.312 11.312 11.312 11.312L328 444.28l11.312 11.312 11.312-11.312-11.312-11.312zM400 424h48v16h-48zm16 20h16v8h-16zm0-32h16v8h-16z"/><path d="M320 0H88v.072a7.945 7.945 0 0 0-5.656 2.272l-80 80A7.925 7.925 0 0 0 .072 88H0v376c0 8.837 7.163 16 16 16h240v-16h-48v-24h16a8 8 0 0 0 8-8v-40a8 8 0 0 0-8-8h-16v-24h16a8 8 0 0 0 8-8v-40a8 8 0 0 0-8-8h-.208A79.84 79.84 0 0 0 256 240c.086-44.183-35.662-80.069-79.844-80.155S96.086 195.507 96 239.689A79.999 79.999 0 0 0 128.208 304H64a8 8 0 0 0-8 8v32H40a8 8 0 0 0-8 8v40a8 8 0 0 0 8 8h16v24H40a8 8 0 0 0-8 8v32H16V96h64c8.837 0 16-7.163 16-16V16h224v176h16V16c0-8.837-7.163-16-16-16zM216 400v24H72v-24h144zM112 240c0-35.346 28.654-64 64-64 35.346 0 64 28.654 64 64 0 35.346-28.654 64-64 64-35.33-.04-63.96-28.67-64-64zm-40 80h144v24H72v-24zm-24 64v-24h144v24H48zm0 56h144v24H48v-24zM80 80H27.312L80 27.312V80z"/><path d="M176 216h24v-16h-16v-8h-16v9.472c-12.473 4.393-19.023 18.066-14.629 30.539A23.943 23.943 0 0 0 176 248a8 8 0 0 1 0 16h-24v16h16v8h16v-9.472c12.473-4.393 19.023-18.066 14.629-30.539A23.943 23.943 0 0 0 176 232a8 8 0 0 1 0-16zM448 40h-16a8 8 0 0 0-8-8h-8V8a8 8 0 0 0-8-8h-32a8 8 0 0 0-8 8v24h-8a8 8 0 0 0-8 8v152h16V48h48v144h16V56h16v104h16V56c0-8.837-7.163-16-16-16zm-48-8h-16V16h16v16zM120 64h136v16H120zm-88 48h272v16H32zm0 32h96v16H32zm200 0h72v16h-72z"/></svg>