<svg id="Layer_1" xmlns="http://www.w3.org/2000/svg" viewBox="0 0 488.8 488.8"><rect id="XMLID_393_" x="81.65" y="362"/><path d="M407.05 56.8h-127.3l21.8-21.8c3.5-3.5 3.5-9.3 0-12.8s-9.3-3.5-12.8 0l-37.3 37.2c-3.5 3.5-3.5 9.3 0 12.8l37.3 37.3c1.8 1.8 4.1 2.7 6.4 2.7s4.6-.9 6.4-2.7c3.5-3.5 3.5-9.3 0-12.8l-21.8-21.8h118.2v336.9h-189.6v-49.7c0-5-4.1-9.1-9.1-9.1H81.65c-5 0-9.1 4.1-9.1 9.1v117.6c0 5 4.1 9.1 9.1 9.1h117.6c5 0 9.1-4.1 9.1-9.1V430h198.8c5 0 9.1-4.1 9.1-9.1v-355c-.1-5.1-4.2-9.1-9.2-9.1zm-216.9 413.8h-99.5v-99.5h99.5v99.5z"/><path d="M72.55 185.6v117.6c0 5 4.1 9.1 9.1 9.1h117.6c5 0 9.1-4.1 9.1-9.1V185.6c0-5-4.1-9.1-9.1-9.1H81.65c-5 0-9.1 4.1-9.1 9.1zm18.1 9.1h99.5v99.5h-99.5v-99.5zm108.6-77c-2.4 0-4.7 1-6.4 2.7s-2.7 4-2.7 6.4 1 4.7 2.7 6.4 4 2.7 6.4 2.7 4.7-1 6.4-2.7 2.7-4 2.7-6.4-1-4.7-2.7-6.4c-1.7-1.7-4-2.7-6.4-2.7zm-29.4 0c-5 0-9.1 4.1-9.1 9.1s4 9.1 9.1 9.1c5 0 9.1-4.1 9.1-9.1s-4.1-9.1-9.1-9.1zm-58.8 0c-5 0-9.1 4.1-9.1 9.1s4.1 9.1 9.1 9.1 9.1-4.1 9.1-9.1c-.1-5-4.1-9.1-9.1-9.1zm29.4 0c-5 0-9.1 4.1-9.1 9.1s4 9.1 9.1 9.1c5 0 9.1-4.1 9.1-9.1-.1-5-4.1-9.1-9.1-9.1zm-58.8 0c-2.4 0-4.7 1-6.4 2.7-1.7 1.7-2.7 4-2.7 6.4s1 4.7 2.7 6.4 4 2.7 6.4 2.7 4.7-1 6.4-2.7c1.7-1.7 2.7-4 2.7-6.4s-1-4.7-2.7-6.4c-1.7-1.7-4-2.7-6.4-2.7zm0-29.4c-5 0-9.1 4-9.1 9.1 0 5 4.1 9.1 9.1 9.1s9.1-4.1 9.1-9.1c-.1-5-4.1-9.1-9.1-9.1zm0-58.8c-5 0-9.1 4.1-9.1 9.1s4.1 9.1 9.1 9.1 9.1-4.1 9.1-9.1c-.1-5.1-4.1-9.1-9.1-9.1zm0 29.4c-5 0-9.1 4-9.1 9s4.1 9.1 9.1 9.1 9.1-4.1 9.1-9.1c-.1-4.9-4.1-9-9.1-9zm0-58.8c-2.4 0-4.7 1-6.4 2.7-1.7 1.7-2.7 4-2.7 6.4s1 4.7 2.7 6.4 4 2.7 6.4 2.7 4.7-1 6.4-2.7c1.7-1.7 2.6-4 2.6-6.4s-1-4.7-2.7-6.4c-1.6-1.7-4-2.7-6.3-2.7zm88.2 0c-5 0-9.1 4-9.1 9.1 0 5 4 9.1 9.1 9.1 5 0 9.1-4.1 9.1-9.1 0-5.1-4.1-9.1-9.1-9.1zm-58.8 0c-5 0-9.1 4-9.1 9.1 0 5 4 9.1 9.1 9.1 5 0 9.1-4.1 9.1-9.1-.1-5.1-4.1-9.1-9.1-9.1zm29.4 0c-5 0-9.1 4-9.1 9.1 0 5 4 9.1 9.1 9.1 5 0 9.1-4.1 9.1-9.1-.1-5.1-4.1-9.1-9.1-9.1zm58.8 18.1c2.4 0 4.7-1 6.4-2.7s2.7-4 2.7-6.4-1-4.7-2.7-6.4-4-2.7-6.4-2.7-4.7 1-6.4 2.7-2.7 4-2.7 6.4 1 4.7 2.7 6.4c1.7 1.8 4 2.7 6.4 2.7zm0 70.1c-5 0-9.1 4-9.1 9s4 9.1 9.1 9.1c5 0 9.1-4.1 9.1-9.1 0-4.9-4.1-9-9.1-9zm0-58.8c-5 0-9.1 4.1-9.1 9.1s4 9.1 9.1 9.1c5 0 9.1-4.1 9.1-9.1 0-5.1-4.1-9.1-9.1-9.1zm0 29.4c-5 0-9.1 4-9.1 9.1 0 5 4 9.1 9.1 9.1 5 0 9.1-4.1 9.1-9.1s-4.1-9.1-9.1-9.1z"/></svg>