<svg id="Capa_1" xmlns="http://www.w3.org/2000/svg" width="319.808" height="319.808"><path d="M317.16 159.471c-16.197-16.199-41.195-24.41-74.307-24.41-7.01 0-14.408.379-22.047 1.121l-79.729-75.346 19.04-19.035a9.04 9.04 0 0 0-.003-12.785l-26.42-26.424c-3.39-3.391-9.394-3.391-12.784 0L2.648 120.863a9.039 9.039 0 0 0-.002 12.783l26.416 26.416a9.041 9.041 0 0 0 12.786 0l19.042-19.035 75.346 79.726c-3.048 31.352-1.057 72.018 23.284 96.358a9.01 9.01 0 0 0 6.391 2.648 9.024 9.024 0 0 0 6.395-2.648l66.035-66.041 50.578 50.582a9.017 9.017 0 0 0 6.395 2.648 9.04 9.04 0 0 0 6.393-15.433l-50.582-50.58 66.037-66.03a9.042 9.042 0 0 0-.002-12.786zM166.505 297.334c-14.614-21.172-14.7-53.803-11.859-78.743a9.033 9.033 0 0 0-2.413-7.23l-84.589-89.516a9.04 9.04 0 0 0-6.443-2.826h-.128a9.045 9.045 0 0 0-6.392 2.647l-19.225 19.221-13.632-13.631L127.303 21.769l13.636 13.641-19.223 19.22a9.052 9.052 0 0 0-2.646 6.525 9.05 9.05 0 0 0 2.832 6.443l89.507 84.582a8.98 8.98 0 0 0 7.23 2.41c8.455-.963 16.602-1.449 24.213-1.449 23.465 0 41.756 4.469 54.539 13.314L166.505 297.334z"/></svg>